PathFileType	4	(X/Y/Z)	Patient4_TMGait_0pt2_03_left_26.trc.trc
DataRate	CameraRate	NumFrames	NumMarkers	Units	OrigDataRate	OrigDataStartFrame	OrigNumFrames
46.822742474916	46.822742474916	6	33	mm	46.822742474916	36	       141
Frame#	Time	Sacral			L.Shoulder			Chest			R.Shoulder			Neck			R.ASIS			L.ASIS			R.Thigh.Superior			R.Thigh.Lateral			R.Thigh.Inferior			R.Patella			L.Thigh.Superior			L.Thigh.Lateral			L.Thigh.Inferior			L.Patella			L.Shank.Superior			L.Shank.Lateral			L.Shank.Inferior			R.Shank.Superior			R.Shank.Lateral			R.Shank.Inferior			R.Heel			R.Midfoot.Superior			R.Midfoot.Lateral			R.Toe			L.Heel			L.Midfoot.Lateral			L.Midfoot.Superior			L.Toe			L.Elbow			L.Wrist			R.Elbow			R.Wrist			
		X1	Y1	Z1	X2	Y2	Z2	X3	Y3	Z3	X4	Y4	Z4	X5	Y5	Z5	X6	Y6	Z6	X7	Y7	Z7	X8	Y8	Z8	X9	Y9	Z9	X10	Y10	Z10	X11	Y11	Z11	X12	Y12	Z12	X13	Y13	Z13	X14	Y14	Z14	X15	Y15	Z15	X16	Y16	Z16	X17	Y17	Z17	X18	Y18	Z18	X19	Y19	Z19	X20	Y20	Z20	X21	Y21	Z21	X22	Y22	Z22	X23	Y23	Z23	X24	Y24	Z24	X25	Y25	Z25	X26	Y26	Z26	X27	Y27	Z27	X28	Y28	Z28	X29	Y29	Z29	X30	Y30	Z30	X31	Y31	Z31	X32	Y32	Z32	X33	Y33	Z33	

36	54.987500000000	932.110301849724	1013.185605254331	520.672700068600	1070.372537815568	1433.992520879926	304.772447557725	1209.904335213643	1359.274230051138	432.113418623555	1180.193774867204	1436.167676354942	620.053025745174	1095.187330801082	1495.004807881149	459.799894668903	1175.076048380039	934.972720991338	589.918381991817	1110.404902015865	962.242979185942	324.343898713721	1164.816324359196	723.071545783657	565.327923909279	1071.875202546905	630.445128070899	644.229064041722	1119.740740125157	563.105221757975	557.687045991773	1100.238892195767	475.684730223609	569.404465071194	1179.036818337014	763.101842993975	349.365645367916	1097.077109003410	628.512754732892	284.586013239230	1205.222909520636	570.823184785201	339.388158252163	1216.047218180723	499.436063042818	340.864456942978	1190.765706855770	427.265063699419	330.285934578367	1104.007949359761	312.845297229196	275.141413753746	1162.949501211165	198.175219342408	333.333962322190	1052.363284253649	395.539785247635	584.307184786681	967.181421017240	312.835036511843	660.190449186431	977.910899483105	209.031234461356	597.717934157324	809.624208648124	66.038861537897	587.155515007442	986.560909992679	99.391078049367	610.565029963998	896.614411996087	48.038873497214	655.160018013008	1102.645100745992	37.903346774995	631.423239054855	1039.539296022558	41.041391639414	365.638736835836	1114.190512352746	38.140077467783	286.384267292689	1198.258254559758	98.243066619983	313.754833743401	1325.536479089631	44.008327835983	285.177288202364	923.256201273389	1111.846116325995	214.552059212543	921.243557586427	849.758568233322	237.261134021911	1363.981300468173	1151.943609743634	727.810293013489	1609.862187450772	1187.013287345465	658.595896569205	
37	55.008857142857	931.751440703570	1013.955846563616	512.551614705157	1073.730199554638	1434.114407585344	298.000945952698	1211.454656753775	1359.462063413231	427.300494600837	1179.342773028910	1436.816755505850	614.677907853974	1096.337402052645	1495.458722194172	453.318521504457	1173.763345357280	935.542533775132	584.877334170505	1112.250012267233	962.112419037454	318.543003097790	1163.569271761573	723.456289769167	561.788914200881	1069.751348154586	631.605942720308	640.642950804477	1118.683656634131	563.368271725878	555.241706635256	1099.313598861744	475.601954559784	567.672493469295	1180.108864642186	763.004277832942	344.723056879924	1098.100765831381	628.244051619618	280.301756091895	1205.975109797560	570.493198925868	335.678408144903	1216.540752892916	498.612944244858	337.672957770516	1190.494476048938	426.348179996685	327.670627904478	1102.713941839168	312.397932828117	273.237457785078	1160.139856097474	197.604664789452	332.561306147030	1050.614747800505	396.055555117989	582.763596981869	964.159304094415	314.574513403599	658.589726042582	974.964324444523	210.005510675934	597.275773693248	805.722471760526	67.775090434239	587.073400387721	983.201511567335	99.700437843504	610.707970171420	892.663063773824	48.858389154757	655.126294996464	1098.641537364148	37.826777322088	631.449704754861	1035.355057048464	40.929828666518	365.662156620893	1109.973794735655	38.069057934037	286.380852407106	1194.046281379065	98.176905193507	313.743908773108	1321.362973869360	43.851335322542	285.151572005187	932.909795232197	1109.946088023825	202.414594349942	937.191223930389	847.553226592937	220.711654054789	1357.060478505993	1148.121907072181	724.384327764954	1605.778814776391	1171.092435642264	658.999033089443	
38	55.030214285714	931.327717439342	1014.726095261236	504.273778387793	1077.209369864523	1434.197461426517	291.094282073883	1212.946381501274	1359.667436249628	422.502671070299	1178.253764647316	1437.557099816221	609.209467429738	1097.448642005961	1495.922049883418	446.681859146238	1172.263925927118	936.199103311457	579.861085241706	1114.131320718631	961.914107842274	312.771998519242	1162.715519518744	723.969773723760	558.284375690784	1068.259582372564	632.646341076482	637.023180767579	1118.578286954030	563.608881564896	552.832036933926	1099.546711876777	475.242904012485	566.102916909147	1180.941475748404	762.675415661999	339.843885605810	1098.544322300155	627.874979976463	275.942431149211	1206.153320998814	569.985088641451	331.780773594440	1216.350767821324	497.729041399126	334.322658182213	1189.648710934084	425.383320910059	324.930102231291	1100.919716815812	311.814605551960	271.270437617646	1157.056241826079	197.006120320456	331.675207238711	1049.776686782722	396.462978607488	581.305845153617	961.781212304309	316.469490153850	656.995248642479	972.481444558120	211.079279577386	596.916858090034	801.975402729035	69.926178239782	587.049171054288	980.083934264780	100.034773244358	610.953296906103	888.802273115719	49.870801846317	655.133445181080	1094.647852983666	37.769979265961	631.468654084136	1031.089211142080	40.748644032547	365.664840093797	1105.680293124762	37.919457463255	286.339405360036	1189.727371039094	98.070334291323	313.686940007209	1317.111357522668	43.747771246882	285.138364132092	943.613003561154	1107.821337936181	190.231487207214	954.134492817934	845.367984748825	204.370060159154	1348.777883920079	1143.797777602582	720.897528229123	1599.665540838632	1153.053547502161	659.629527274489	
39	55.051571428571	930.831033534716	1015.461731836831	495.859075063294	1080.785094557016	1434.232081958107	284.091319965804	1214.342946270741	1359.881010905551	417.752106543755	1176.882405834717	1438.353306354343	603.678270598473	1098.492163524589	1496.371819505722	439.933114094965	1170.579250695850	936.927904406152	574.883744332107	1116.048251812137	961.663320825316	307.064038934590	1162.418423676340	724.642754564487	554.814759193988	1067.654060799810	633.521198847840	633.362286363666	1119.731674600260	563.837100012588	550.444654538249	1101.270239593063	474.592158116474	564.691906212487	1181.598960148938	762.146933895427	334.820320610213	1098.585837430651	627.422615232135	271.532848644779	1205.890595298335	569.328673830932	327.804248162519	1215.625231170234	496.802456413685	330.910643607454	1188.361104071347	424.379782986188	322.138696286031	1098.769482905112	311.125486328633	269.251548676197	1153.765015521430	196.386556291972	330.719848866761	1050.140077002187	396.752738333688	579.919987943232	960.328367820870	318.595018175527	655.410382259043	970.649166036785	212.336554228191	596.641068760935	798.504107325682	72.782201810045	587.101011803376	977.287631084110	100.442422697523	611.304033987570	885.090465728160	51.268200530413	655.190859045714	1090.632166813907	37.710509356768	631.479182956580	1026.759087203662	40.521142035361	365.642325846773	1101.327531369936	37.717551525020	286.258754094500	1185.327730857766	97.933038513941	313.593640207339	1312.802072002719	43.685697461582	285.129001072108	955.418577490288	1105.497126051388	178.078284074286	972.178132909364	843.215701576886	188.378365947200	1339.026884879200	1139.003981675052	717.345906393712	1591.119007605261	1132.796875612379	660.449378606044	
40	55.072928571429	930.241056606850	1016.098436483767	487.326750338269	1084.430287379446	1434.189026405309	277.046525679294	1215.605036033219	1360.063581027996	413.092433927819	1175.184535813740	1439.133897783929	598.130858937386	1099.437634257365	1496.760726677303	433.129178396404	1168.710058383491	937.687881070535	569.958307216804	1117.990683421819	961.356507823731	301.446000395262	1162.840371645078	725.501748938308	551.364267842858	1068.197975038949	634.186635047566	629.642091952505	1122.444846165887	564.072967475024	548.045900381939	1104.804667450741	473.659582145023	563.402964392182	1182.165750549882	761.452788552209	329.768675590182	1098.456404915326	626.889056465441	267.111681126631	1205.376855794511	568.553307781778	323.880605276276	1214.579926841818	495.838330454916	327.553581214760	1186.817470057193	423.332103806334	319.384419154677	1096.445517544720	310.357544069113	267.209060966040	1150.352883477247	195.746185135485	329.750975152293	1051.999483131297	396.922505289604	578.566879139445	960.107167301523	321.030524851193	653.822591996920	969.669216625903	213.876874864346	596.429970909269	795.462287585948	76.683218726711	587.233165783203	974.895088791078	100.996632206019	611.746863939814	881.601949734064	53.293328794653	655.298445603469	1086.551142315102	37.616725806566	631.480369534960	1022.387323546058	40.272465579724	365.595449077874	1096.937932548785	37.491092748513	286.144517408740	1180.879147190649	97.775851039415	313.479811760435	1308.458618291644	43.649957202398	285.117700474721	968.343430479911	1103.008457493627	166.041969367020	991.411474187575	841.124031576268	172.891098589375	1327.747479226104	1133.775743532098	713.710723234053	1579.747947679013	1110.322158811816	661.427084714743	
41	55.094285714286	929.531320380762	1016.542863475083	478.701296859161	1088.111479105429	1434.020352684473	270.029852425035	1216.690273960484	1360.149254488909	408.576825920899	1173.118068755570	1439.795253634560	592.629148108242	1100.253115441009	1497.019427278828	426.340179051558	1166.661735717804	938.413969898901	565.096609807694	1119.939774714811	960.968655533400	295.937903194565	1164.123107179825	726.569009370155	547.894303799008	1070.139967370126	634.610162379407	625.834974306119	1126.973797682213	564.351778199643	545.578232698046	1110.421050018904	472.489201655204	562.164511933144	1182.737945023253	760.622051381408	324.808726459413	1098.405916789415	626.255727010567	262.728198016988	1204.836471790032	567.680921152603	320.142504123226	1213.474658211502	494.826896732904	324.369239969948	1185.236189357054	422.218468807671	316.756218825577	1094.145693057915	309.530503592145	265.183559819549	1146.916058632565	195.076388925021	328.826320171223	1055.622033837092	396.984243938583	577.183570366519	961.418701895695	323.855030024599	652.201032058846	969.739994427364	215.810278650067	596.244622707835	793.029799392323	81.991482321668	587.429638992498	972.987955321513	101.797992863091	612.251389971291	878.425869604440	56.224768947739	655.442222947989	1082.355720049513	37.449293037643	631.471462465397	1017.997289042833	40.025820089576	365.528497689662	1092.534483296875	37.264815321424	286.006657297346	1176.413882977532	97.608268384973	313.364130295401	1304.103910030447	43.622997606733	285.101713112697	982.363206284927	1100.394465939741	154.221267136158	1011.901454355692	839.133860130411	158.065781235347	1314.924293381587	1128.142706626899	709.959003042085	1565.188638802943	1085.745038690679	662.534765328843	
